<?xml version="1.0"?>
<svg width="1156" height="1280" xmlns="http://www.w3.org/2000/svg" xmlns:svg="http://www.w3.org/2000/svg" preserveAspectRatio="xMidYMid meet" version="1.0">
 <metadata>Created by potrace 1.15, written by Peter Selinger 2001-2017</metadata>
 <defs>
  <linearGradient id="svg_8" x1="0" x2="1" y1="0" y2="0">
   <stop id="jq_stop_6098" offset="0" stop-color="#c512c1"/>
   <stop id="jq_stop_4507" offset="1" stop-color="#f13232" stop-opacity="1"/>
  </linearGradient>
 </defs>
 <g class="layer">
  <title>Layer 1</title>
  <g fill="#000000" id="svg_1" transform="matrix(0.1 0 0 -0.1 0 0)">
   <path d="m3940,-10c-520,-86 -975,-589 -1233,-1363c-401,-1200 -216,-2736 430,-3565c224,-287 511,-478 787,-522c108,-18 310,-8 406,20c180,51 352,156 513,309c182,175 309,354 442,626c183,372 288,749 351,1255c15,116 19,218 19,510c0,381 -8,490 -56,770c-134,785 -465,1430 -898,1749c-106,78 -280,163 -391,191c-96,24 -283,34 -370,20z" fill="url(#svg_8)" id="svg_2"/>
   <path d="m7323,-154c-305,-58 -571,-243 -815,-566c-88,-117 -155,-230 -242,-411c-177,-365 -280,-742 -342,-1249c-26,-207 -26,-782 -1,-990c72,-590 214,-1052 444,-1449c97,-166 200,-301 332,-431c247,-245 496,-360 780,-360c171,0 283,27 444,106c449,221 824,789 1012,1535c103,412 149,887 126,1306c-35,629 -159,1136 -391,1592c-249,490 -586,805 -963,902c-105,27 -285,34 -384,15z" fill="url(#svg_8)" id="svg_3"/>
   <path d="m10340,-3530c-286,-41 -567,-217 -812,-509c-791,-943 -980,-2707 -388,-3611c73,-112 234,-276 330,-338c299,-193 663,-168 1013,70c118,80 322,282 420,415c367,498 594,1157 647,1878c54,748 -130,1442 -479,1808c-178,186 -362,277 -587,290c-49,3 -114,2 -144,-3z" fill="url(#svg_8)" id="svg_4"/>
   <path d="m893,-3699c-416,-103 -731,-552 -849,-1216c-8,-44 -21,-154 -29,-245c-105,-1174 434,-2464 1180,-2825c147,-72 226,-90 390,-90c119,0 151,4 215,23c422,132 728,615 826,1302c35,250 30,684 -12,975c-102,713 -404,1366 -809,1754c-184,175 -375,285 -571,326c-93,20 -251,18 -341,-4z" fill="url(#svg_8)" id="svg_5"/>
   <path d="m5558,-5961c-530,-30 -975,-210 -1198,-485c-74,-91 -121,-188 -180,-375c-164,-520 -229,-704 -315,-885c-119,-252 -250,-439 -427,-610c-249,-239 -437,-335 -898,-459c-324,-87 -510,-156 -636,-235c-377,-237 -674,-628 -827,-1090c-78,-233 -109,-423 -109,-655c0,-231 41,-416 148,-657c214,-486 701,-1016 1131,-1232c200,-100 279,-113 607,-97c322,15 463,39 578,97c71,36 111,83 170,196c96,189 250,316 408,338c187,26 364,-73 570,-319c123,-148 207,-206 370,-259c404,-131 1169,-97 1495,65c93,47 152,101 256,234c186,238 247,282 393,281c184,-1 327,-102 542,-384c57,-75 121,-150 141,-168c56,-46 151,-88 255,-113c86,-20 116,-21 413,-20c249,1 337,5 395,17c325,69 830,514 1130,996c124,198 225,441 265,635c47,224 21,630 -59,955c-120,483 -361,837 -682,1002c-156,80 -243,106 -609,183c-430,90 -604,174 -831,399c-209,207 -339,487 -494,1061c-125,465 -161,577 -230,720c-58,120 -103,181 -218,299c-148,150 -303,262 -498,359c-332,166 -656,229 -1056,206z" fill="url(#svg_8)" id="svg_6"/>
  </g>
 </g>
</svg>