<?xml version="1.0" standalone="no"?>
<!DOCTYPE svg PUBLIC "-//W3C//DTD SVG 20010904//EN"
 "http://www.w3.org/TR/2001/REC-SVG-20010904/DTD/svg10.dtd">
<svg version="1.0" xmlns="http://www.w3.org/2000/svg"
 width="1156.000000pt" height="1280.000000pt" viewBox="0 0 1156.000000 1280.000000"
 preserveAspectRatio="xMidYMid meet">
<metadata>
Created by potrace 1.15, written by Peter Selinger 2001-2017
</metadata>
<g transform="translate(0.000000,1280.000000) scale(0.100000,-0.100000)"
fill="#000000" stroke="none">
<path d="M3940 12790 c-520 -86 -975 -589 -1233 -1363 -401 -1200 -216 -2736
430 -3565 224 -287 511 -478 787 -522 108 -18 310 -8 406 20 180 51 352 156
513 309 182 175 309 354 442 626 183 372 288 749 351 1255 15 116 19 218 19
510 0 381 -8 490 -56 770 -134 785 -465 1430 -898 1749 -106 78 -280 163 -391
191 -96 24 -283 34 -370 20z"/>
<path d="M7323 12646 c-305 -58 -571 -243 -815 -566 -88 -117 -155 -230 -242
-411 -177 -365 -280 -742 -342 -1249 -26 -207 -26 -782 -1 -990 72 -590 214
-1052 444 -1449 97 -166 200 -301 332 -431 247 -245 496 -360 780 -360 171 0
283 27 444 106 449 221 824 789 1012 1535 103 412 149 887 126 1306 -35 629
-159 1136 -391 1592 -249 490 -586 805 -963 902 -105 27 -285 34 -384 15z"/>
<path d="M10340 9270 c-286 -41 -567 -217 -812 -509 -791 -943 -980 -2707
-388 -3611 73 -112 234 -276 330 -338 299 -193 663 -168 1013 70 118 80 322
282 420 415 367 498 594 1157 647 1878 54 748 -130 1442 -479 1808 -178 186
-362 277 -587 290 -49 3 -114 2 -144 -3z"/>
<path d="M893 9101 c-416 -103 -731 -552 -849 -1216 -8 -44 -21 -154 -29 -245
-105 -1174 434 -2464 1180 -2825 147 -72 226 -90 390 -90 119 0 151 4 215 23
422 132 728 615 826 1302 35 250 30 684 -12 975 -102 713 -404 1366 -809 1754
-184 175 -375 285 -571 326 -93 20 -251 18 -341 -4z"/>
<path d="M5558 6839 c-530 -30 -975 -210 -1198 -485 -74 -91 -121 -188 -180
-375 -164 -520 -229 -704 -315 -885 -119 -252 -250 -439 -427 -610 -249 -239
-437 -335 -898 -459 -324 -87 -510 -156 -636 -235 -377 -237 -674 -628 -827
-1090 -78 -233 -109 -423 -109 -655 0 -231 41 -416 148 -657 214 -486 701
-1016 1131 -1232 200 -100 279 -113 607 -97 322 15 463 39 578 97 71 36 111
83 170 196 96 189 250 316 408 338 187 26 364 -73 570 -319 123 -148 207 -206
370 -259 404 -131 1169 -97 1495 65 93 47 152 101 256 234 186 238 247 282
393 281 184 -1 327 -102 542 -384 57 -75 121 -150 141 -168 56 -46 151 -88
255 -113 86 -20 116 -21 413 -20 249 1 337 5 395 17 325 69 830 514 1130 996
124 198 225 441 265 635 47 224 21 630 -59 955 -120 483 -361 837 -682 1002
-156 80 -243 106 -609 183 -430 90 -604 174 -831 399 -209 207 -339 487 -494
1061 -125 465 -161 577 -230 720 -58 120 -103 181 -218 299 -148 150 -303 262
-498 359 -332 166 -656 229 -1056 206z"/>
</g>
</svg>
